<?xml version="1.0" encoding="utf-8"?>
<!-- Generator: Adobe Illustrator 16.0.0, SVG Export Plug-In . SVG Version: 6.00 Build 0)  -->
<!DOCTYPE svg PUBLIC "-//W3C//DTD SVG 1.1//EN" "http://www.w3.org/Graphics/SVG/1.1/DTD/svg11.dtd">
<svg version="1.1" id="mainview" onload="init(evt)"
	 xmlns="http://www.w3.org/2000/svg" xmlns:xlink="http://www.w3.org/1999/xlink" x="0px" y="0px" width="1188.047px"
	 height="988.67px" viewBox="13.906 -14.233 1188.047 988.67" enable-background="new 13.906 -14.233 1188.047 988.67"
	 xml:space="preserve">
<image overflow="visible" width="3760" height="3130" xlink:href="123456.png"  transform="matrix(0.3426 0 0 0.3426 -67.8162 -76.1406)">
</image>

<style type="text/css">
<![CDATA[
.flowpath {
    stroke-dasharray: 6;
    animation: dash 100s infinite linear;
}

@keyframes dash {
    0% {
        stroke-dashoffset: 1000;
    }
    100% {
        stroke-dashoffset: 0;
    }
}
]]>
</style>
<path id="road" fill="none" stroke="#EAEAEA" stroke-width="10" stroke-miterlimit="10" d="M1002.998,886.661
	C971.5,879.25,929.703,863.027,905.25,853c-15.5-4.5-32.75,3.25-55.584-16.339c-20.916-19.911-14.416-33.661-48-45.331
	c-16.416-6.58-36.272-0.998-46.416-5.33c-24-10.25-27.461-20.659-33.584-30.67c-4.685-7.66-4.916-12.33-15.666-22.58
	c-7.981-7.61-13.793-17.347-29.25-42.25c-9-14.5-8-18.75-15.084-47.835c-1.643-6.745-1.248-13.879-3.666-20.665
	c-9.379-26.323-14.382-35.284-22.006-45.308c-11.744-15.442-40.32-12.236-49.662-25.706C577.5,538.25,559,519.5,549,514.323
	C543.16,511.301,515.332,502,515.332,502S505,498.5,496,482.99c-17.197-29.633-8.5-28.74-27.668-46.333
	c-4.515-4.146-7.053-5.634-17.332-11.157c-9.659-5.189-28.666-11.845-33.334-14.845c-4.666-3-9.285-1.858-20-20.333
	C386.75,371.499,382,365.995,374,358.662s-27.75-15.163-37.332-22.333c-3.969-2.969-14.918-12.83-20.668-24.333
	c-2.203-4.407-18.607-16.238-25.666-22.333c-5.176-4.47-8.269-13.408-11.333-17.667c-5.371-7.463-21.58-17.673-26.667-25.333
	c-6.584-9.913-17.584-25.413-24.667-35.333c-2.883-4.038-6.25-13.736-9.667-17.333c-7.442-7.834-19.171-17.079-25-23.333
	c-3.648-3.914-9.541-12.918-13-17c-2.21-2.608-9.667-9.667-9.667-9.667"/>
<path id="lline" fill="none" stroke="#5B5B5B" stroke-width="1.5"  class="flowpath" stroke-miterlimit="10" stroke-dasharray="6" d="M168.333,144.997
	c0,0,7.457,7.059,9.667,9.667c3.459,4.082,9.352,13.086,13,17c5.829,6.254,17.558,15.499,25,23.333
	c3.417,3.597,6.784,13.295,9.667,17.333c7.083,9.92,18.083,25.42,24.667,35.333c5.087,7.66,21.296,17.87,26.667,25.333
	c3.064,4.259,6.157,13.197,11.333,17.667c7.059,6.095,23.463,17.926,25.666,22.333c5.75,11.503,16.699,21.364,20.668,24.333
	c9.582,7.17,29.332,15,37.332,22.333s12.75,12.837,23.666,31.66c10.715,18.475,15.334,17.333,20,20.333
	c4.668,3,23.675,9.655,33.334,14.845c10.279,5.523,12.817,7.013,17.332,11.157c19.168,17.593,10.471,16.7,27.668,46.333
	c9,15.51,19.332,19.01,19.332,19.01s27.828,9.301,33.668,12.323c10,5.177,28.5,23.927,37.332,36.663
	c9.342,13.47,37.918,10.264,49.662,25.706C641.618,587.716,646.621,596.677,656,623c2.418,6.786,2.023,13.92,3.666,20.665
	C666.75,672.75,665.75,677,674.75,691.5c15.457,24.903,21.269,34.64,29.25,42.25c10.75,10.25,10.981,14.92,15.666,22.58
	c6.123,10.011,9.584,20.42,33.584,30.67c10.144,4.332,30-1.25,46.416,5.33c33.584,11.67,27.084,25.42,48,45.331
	C870.5,857.25,887.75,849.5,903.25,854c24.453,10.027,66.25,26.25,97.748,33.661"/>
<path id="rline" fill="none" stroke="#5B5B5B" stroke-width="1.5" stroke-miterlimit="10" stroke-dasharray="6" d="
	M1004.998,884.661C973.5,877.25,931.703,861.027,907.25,851c-15.5-4.5-32.75,3.25-55.584-16.339
	c-20.916-19.911-14.416-33.661-48-45.331c-16.416-6.58-36.272-0.998-46.416-5.33c-24-10.25-27.461-20.659-33.584-30.67
	c-4.685-7.66-4.916-12.33-15.666-22.58c-7.981-7.61-13.793-17.347-29.25-42.25c-9-14.5-8-18.75-15.084-47.835
	c-1.643-6.745-1.248-13.879-3.666-20.665c-9.379-26.323-14.382-35.284-22.006-45.308c-11.744-15.442-40.32-12.236-49.662-25.706
	C579.5,536.25,561,517.5,551,512.323C545.16,509.301,517.332,500,517.332,500S507,496.5,498,480.99
	c-17.197-29.633-8.5-28.74-27.668-46.333c-4.515-4.146-7.053-5.634-17.332-11.157c-9.659-5.189-28.666-11.845-33.334-14.845
	c-4.666-3-9.285-1.858-20-20.333C388.75,369.499,384,363.995,376,356.662s-27.75-15.163-37.332-22.333
	c-3.969-2.969-14.918-12.83-20.668-24.333c-2.203-4.407-18.607-16.238-25.666-22.333c-5.176-4.47-8.269-13.408-11.333-17.667
	c-5.371-7.463-21.58-17.673-26.667-25.333c-6.584-9.913-17.584-25.413-24.667-35.333c-2.883-4.038-6.25-13.736-9.667-17.333
	c-7.442-7.834-19.171-17.079-25-23.333c-3.648-3.914-9.541-12.918-13-17c-2.21-2.608-9.667-9.667-9.667-9.667"/>
<circle id="DYF" onclick="mouseClick(this)" onmouseover="mouseStyleIn(this)" onmouseout="mouseStyleOut(this)" fill="#37B48C" stroke="#2BC193" stroke-width="5" stroke-miterlimit="10" cx="218.655" cy="195.188" r="11.125"/>
<circle id="MJQ" onclick="mouseClick(this)" onmouseover="mouseStyleIn(this)" onmouseout="mouseStyleOut(this)" fill="#37B48C" stroke="#2BC193" stroke-width="5" stroke-miterlimit="10" cx="252.822" cy="247.188" r="11.125"/>
<circle id="CY" onclick="mouseClick(this)" onmouseover="mouseStyleIn(this)" onmouseout="mouseStyleOut(this)" fill="#37B48C" stroke="#2BC193" stroke-width="5" stroke-miterlimit="10" cx="327.822" cy="328.188" r="11.125"/>
<circle id="LF" onclick="mouseClick(this)" onmouseover="mouseStyleIn(this)" onmouseout="mouseStyleOut(this)" fill="#37B48C" stroke="#2BC193" stroke-width="5" stroke-miterlimit="10" cx="399.822" cy="393.188" r="11.125"/>
<circle id="SCD" onclick="mouseClick(this)" onmouseover="mouseStyleIn(this)" onmouseout="mouseStyleOut(this)" fill="#37B48C" stroke="#2BC193" stroke-width="5" stroke-miterlimit="10" cx="500.322" cy="490.813" r="11.125"/>
<circle id="YC" onclick="mouseClick(this)" onmouseover="mouseStyleIn(this)" onmouseout="mouseStyleOut(this)" fill="#37B48C" stroke="#2BC193" stroke-width="5" stroke-miterlimit="10" cx="626.322" cy="568.813" r="11.125"/>
<circle id="XZZ" onclick="mouseClick(this)" onmouseover="mouseStyleIn(this)" onmouseout="mouseStyleOut(this)" fill="#37B48C" stroke="#2BC193" stroke-width="5" stroke-miterlimit="10" cx="654.822" cy="613.313" r="11.125"/>
<circle id="YXF" onclick="mouseClick(this)" onmouseover="mouseStyleIn(this)" onmouseout="mouseStyleOut(this)" fill="#37B48C" stroke="#2BC193" stroke-width="5" stroke-miterlimit="10" cx="717.322" cy="748.313" r="11.125"/>
<circle id="JZL" onclick="mouseClick(this)" onmouseover="mouseStyleIn(this)" onmouseout="mouseStyleOut(this)" fill="#37B48C" stroke="#2BC193" stroke-width="5" stroke-miterlimit="10" cx="742.322" cy="778.313" r="11.125"/>
<circle id="JC" onclick="mouseClick(this)" onmouseover="mouseStyleIn(this)" onmouseout="mouseStyleOut(this)" fill="#37B48C" stroke="#2BC193" stroke-width="5" stroke-miterlimit="10" cx="807.821" cy="793.313" r="11.125"/>
<circle id="KG" onclick="mouseClick(this)" onmouseover="mouseStyleIn(this)" onmouseout="mouseStyleOut(this)" fill="#37B48C" stroke="#2BC193" stroke-width="5" stroke-miterlimit="10" cx="858.821" cy="840.813" r="11.125"/>
<circle id="TGX" onclick="mouseClick(this)" onmouseover="mouseStyleIn(this)" onmouseout="mouseStyleOut(this)" fill="#37B48C" stroke="#2BC193" stroke-width="5" stroke-miterlimit="10" cx="963.321" cy="874.536" r="11.125"/>
<circle id="TG" onclick="mouseClick(this)" onmouseover="mouseStyleIn(this)" onmouseout="mouseStyleOut(this)" fill="#37B48C" stroke="#2BC193" stroke-width="5" stroke-miterlimit="10" cx="1002.998" cy="887.661" r="11.125"/>
<g id="大羊坊">
	<rect x="239.697" y="175.688" fill="none" width="67.25" height="25"/>
	<path fill="#37B48C" d="M240.294,180.688h6.942c0.082-1.277,0.117-2.754,0.105-4.43h2.672c-0.035,1.74-0.082,3.217-0.141,4.43h7.26
		v2.426h-7.058c1.008,3.914,3.441,6.545,7.304,7.893c-0.832,0.949-1.5,1.758-2.004,2.426c-3.193-1.5-5.417-3.917-6.671-7.251
		c-0.974,3.053-3.221,5.511-6.741,7.374c-0.469-0.598-1.131-1.348-1.986-2.25c4.267-1.934,6.602-4.664,7.005-8.191h-6.688V180.688z"
		/>
	<path fill="#37B48C" d="M258.136,187.298h7.295v-1.969h-5.484v-2.109h5.484v-1.934h-6.645v-2.109h4.104
		c-0.668-0.771-1.228-1.4-1.679-1.881l1.881-1.318l2.373,2.355l-1.23,0.844h3.296c0.785-0.99,1.567-2.045,2.348-3.164l2.619,1.143
		l-1.863,2.021h3.973v2.109h-6.574v1.934h5.449v2.109h-5.449v1.969h7.242v2.145h-7.242v4.113h-2.602v-4.113h-7.295V187.298
		L258.136,187.298z"/>
	<path fill="#37B48C" d="M292.308,189.636c-0.047,2.273-0.914,3.445-2.602,3.516c-0.668,0.047-1.576,0.076-2.726,0.088
		c-0.198-1.008-0.397-1.857-0.598-2.549c0.949,0.035,1.693,0.053,2.232,0.053c0.762-0.023,1.147-0.48,1.159-1.371
		c0.06-1.418,0.117-2.789,0.177-4.113h-3.728c-0.129,3.633-1.102,6.416-2.918,8.35c-0.914-0.773-1.652-1.348-2.215-1.723
		c1.723-1.781,2.602-4.061,2.637-6.838c0.035-1.172,0.06-2.443,0.07-3.814h-1.564v1.635h-1.811v5.01
		c0.598-0.176,1.229-0.357,1.897-0.545c-0.022,1.008-0.018,1.84,0.019,2.496c-1.805,0.516-3.791,1.137-5.959,1.863l-0.457-2.619
		c0.656-0.164,1.377-0.346,2.162-0.545v-5.66h-1.986v-2.408h1.986v-4.271h2.338v4.271h1.6v-1.564h4.324
		c-0.234-0.715-0.498-1.447-0.791-2.197l2.549-0.598c0.328,0.961,0.634,1.893,0.914,2.795h4.324v2.338h-7.031
		c-0.012,0.645-0.022,1.201-0.035,1.67h6.293C292.466,185.071,292.378,187.315,292.308,189.636z"/>
</g>
<g id="马驹桥">
	<rect x="271.697" y="226.938" fill="none" width="67.25" height="25"/>
	<path fill="#37B48C" d="M272.119,238.249h12.62v2.285h-12.62V238.249z M274.738,231.147h2.761l-0.388,3.568h5.969l0.447-4.342
		h-9.967v-2.197h12.938l-0.659,6.539h2.786c-0.076,3.404-0.155,5.619-0.237,6.645s-0.428,1.792-1.037,2.298
		c-0.608,0.506-1.427,0.778-2.452,0.813c-1.024,0.035-2.666,0.053-4.922,0.053c-0.164-0.832-0.375-1.711-0.633-2.637
		c2.273,0.094,3.832,0.141,4.676,0.141c0.533,0,0.907-0.092,1.121-0.277s0.374-0.401,0.479-0.65
		c0.104-0.249,0.188-1.651,0.246-4.206h-11.689L274.738,231.147z"/>
	<path fill="#37B48C" d="M289.837,238.987c1.242-0.117,2.625-0.27,4.147-0.457c0,0.703,0.013,1.412,0.035,2.127
		c-1.5,0.211-2.807,0.398-3.92,0.563L289.837,238.987z M292.843,230.989l-0.492,4.412h1.09l0.404-5.115h-3.674v-2.109h6.047
		l-0.598,7.225h1.248c-0.095,2.227-0.188,4.318-0.281,6.275c-0.094,1.031-0.347,1.746-0.756,2.146
		c-0.388,0.396-1.084,0.592-2.093,0.58c-0.655,0.012-1.405-0.006-2.25-0.053c-0.104-0.715-0.233-1.482-0.387-2.303
		c0.75,0.082,1.547,0.135,2.391,0.158c0.609,0.035,0.938-0.229,0.984-0.791c0.07-1.301,0.152-2.602,0.246-3.902h-4.641l0.668-6.521
		L292.843,230.989L292.843,230.989z M298.679,227.315l2.355,0.281c-0.212,0.691-0.439,1.377-0.688,2.057h6.451
		c-0.104,5.555-0.183,9.281-0.229,11.18c-0.035,1.43-0.239,2.385-0.614,2.865c-0.375,0.539-1.091,0.832-2.146,0.879
		c-0.879,0.035-1.934,0.059-3.163,0.07c-0.164-0.973-0.363-1.857-0.599-2.654c1.358,0.105,2.32,0.146,2.883,0.123
		c0.914,0,1.377-0.492,1.39-1.477c0.069-1.688,0.136-4.611,0.192-8.771h-5.063c-0.233,0.539-0.485,1.072-0.756,1.6h4.692v7.014
		h-3.674v0.879h-2.039v-6.486c-0.375-0.352-0.867-0.785-1.478-1.301C297.396,231.335,298.222,229.249,298.679,227.315z
		 M299.716,235.472v3.006h1.617v-3.006H299.716z"/>
	<path fill="#37B48C" d="M307.872,237.616c0.914-1.529,1.604-3.123,2.074-4.781h-1.862v-2.215H310v-3.111h2.215v3.111h1.459v2.215
		h-1.459v1.16c0.838,0.539,1.588,1.043,2.25,1.512l-1.371,1.775c-0.287-0.258-0.58-0.513-0.879-0.765v8.253H310v-7.022
		c-0.439,1.049-0.962,2.077-1.564,3.085C308.318,240.024,308.13,238.952,307.872,237.616z M320.722,237.669h1.125
		c-0.942-0.844-1.688-1.846-2.231-3.006c-0.533,1.113-1.301,2.115-2.304,3.006h1.056c0,2.016-0.236,3.533-0.712,4.553
		s-1.216,1.934-2.225,2.742c-0.599-0.598-1.178-1.154-1.739-1.67c0.772-0.545,1.366-1.151,1.779-1.819s0.646-1.638,0.699-2.909
		c-0.539,0.375-1.125,0.727-1.759,1.055c-0.457-0.785-0.891-1.471-1.301-2.057c2.099-0.861,3.564-2.039,4.402-3.533h-3.542v-1.986
		h4.264c0.11-0.533,0.179-1.107,0.201-1.723l-3.655,0.104c-0.069-0.609-0.176-1.283-0.315-2.021
		c3.233-0.023,6.586-0.164,10.055-0.422l0.3,2.039l-4.21,0.22c-0.022,0.639-0.082,1.239-0.177,1.802h4.86v1.986h-3.798
		c0.92,1.441,2.31,2.479,4.166,3.111c-0.422,0.645-0.86,1.371-1.317,2.18c-0.511-0.246-0.983-0.52-1.424-0.817v6.161h-2.197
		L320.722,237.669L320.722,237.669z"/>
</g>
<g id="采育">
	<rect x="351.447" y="307.063" fill="none" width="67.25" height="25"/>
	<path fill="#37B48C" d="M352.063,315.562h7.102v-1.424h0.817c-0.47-0.85-1.022-1.758-1.661-2.725l1.468-0.773l-6.724,0.211
		c-0.164-0.727-0.357-1.494-0.58-2.303c6.315-0.082,11.35-0.258,15.1-0.527l0.773,2.25l-7.998,0.352
		c0.721,1.008,1.295,1.857,1.723,2.549l-1.837,0.967h1.396v1.424h7.188v2.232h-5.703c1.692,1.729,3.765,3.07,6.214,4.025
		c-0.517,0.574-1.043,1.271-1.582,2.092c-2.606-1.371-4.646-3.012-6.117-4.922v5.836h-2.479v-5.818
		c-1.506,1.916-3.504,3.586-5.994,5.01c-0.444-0.691-0.967-1.395-1.563-2.109c2.331-0.99,4.32-2.361,5.968-4.113h-5.512
		L352.063,315.562L352.063,315.562z M354.681,311.062c0.82,0.867,1.623,1.781,2.408,2.742l-1.882,1.371
		c-0.702-0.961-1.459-1.91-2.268-2.848L354.681,311.062z M365.755,310.622l1.916,1.266c-0.854,1.055-1.806,2.121-2.849,3.199
		l-1.688-1.406C364.097,312.673,364.97,311.653,365.755,310.622z"/>
	<path fill="#37B48C" d="M370.097,309.11h7.065c-0.188-0.422-0.375-0.85-0.563-1.283l2.673-0.299
		c0.198,0.422,0.444,0.949,0.737,1.582h6.873v1.916h-4.431c1.863,1.219,3.252,2.127,4.166,2.725l-1.563,1.371
		c-0.435-0.293-0.892-0.604-1.371-0.932c-5.789,0.094-9.784,0.252-11.987,0.475l-0.722-1.793c1.147-0.48,2.25-1.096,3.306-1.846
		h-4.185L370.097,309.11L370.097,309.11z M374.298,324.896h-2.461v-9.738h13.307v7.014c0,1.547-0.709,2.396-2.127,2.549
		c-1.008,0.094-2.045,0.129-3.11,0.105c-0.117-0.586-0.306-1.277-0.563-2.074c0.879,0.047,1.651,0.064,2.319,0.053
		c0.634,0,0.968-0.346,1.003-1.037h-8.367L374.298,324.896L374.298,324.896z M374.298,317.812h8.385v-0.932h-8.385V317.812z
		 M374.298,320.255h8.385v-0.932h-8.385V320.255z M380.099,311.729l0.861-0.703h-3.375c-1.021,0.586-1.938,1.154-2.761,1.705
		c1.569-0.047,3.709-0.117,6.416-0.211C380.866,312.263,380.486,311.999,380.099,311.729z"/>
</g>
<g id="廊坊">
	<rect x="421.697" y="368.188" fill="none" width="67.25" height="25"/>
	<path fill="#37B48C" d="M425.37,376.669c0,4.283-0.567,7.43-1.704,9.439c-0.599-0.539-1.242-1.09-1.935-1.652
		c0.996-1.77,1.478-4.471,1.44-8.104v-6.082h6.961l-0.457-1.072l2.726-0.65l0.703,1.723h6.274v2.004h-14.011L425.37,376.669
		L425.37,376.669z M430.872,380.8c0.779,1.178,1.513,2.399,2.197,3.665v-11.171h5.978v1.898l-1.214,2.936
		c0.927,1.143,1.39,2.396,1.39,3.762c0,1.799-0.907,2.698-2.726,2.698c-0.245,0-0.521-0.015-0.825-0.044
		c-0.07-0.633-0.211-1.371-0.423-2.215c0.363,0.07,0.691,0.105,0.984,0.105c0.526,0,0.791-0.281,0.791-0.844
		c0-0.967-0.479-2.004-1.441-3.111l1.195-3.252h-1.636v10.846h-2.073v-1.441l-1.793,0.914c-0.183-0.398-0.372-0.791-0.571-1.178
		c-1.834,0.662-3.186,1.207-4.052,1.635l-0.933-1.635c0.281-0.34,0.422-0.809,0.422-1.406v-9.281h1.863l-0.369-0.844l2.269-0.527
		c0.205,0.463,0.396,0.92,0.57,1.371h1.784v7.102h-4.078v2.496l1.601-0.615c-0.192-0.346-0.394-0.686-0.599-1.02L430.872,380.8z
		 M430.257,375.403h-2.074v1.072h2.074V375.403z M430.257,379.06v-1.072h-2.074v1.072H430.257z"/>
	<path fill="#37B48C" d="M456.308,382.136c-0.047,2.273-0.914,3.445-2.603,3.516c-0.668,0.047-1.575,0.076-2.725,0.088
		c-0.199-1.008-0.398-1.857-0.599-2.549c0.948,0.035,1.692,0.053,2.231,0.053c0.763-0.023,1.147-0.48,1.16-1.371
		c0.059-1.418,0.116-2.789,0.176-4.113h-3.728c-0.129,3.633-1.103,6.416-2.918,8.35c-0.914-0.773-1.651-1.348-2.215-1.723
		c1.724-1.781,2.603-4.061,2.638-6.838c0.034-1.172,0.059-2.443,0.069-3.814h-1.563v1.635h-1.812v5.01
		c0.599-0.176,1.229-0.357,1.897-0.545c-0.022,1.008-0.019,1.84,0.019,2.496c-1.806,0.516-3.791,1.137-5.959,1.863l-0.457-2.619
		c0.655-0.164,1.377-0.346,2.161-0.545v-5.66h-1.985v-2.408h1.985v-4.271h2.339v4.271h1.601v-1.564h4.323
		c-0.233-0.715-0.498-1.447-0.791-2.197l2.55-0.598c0.327,0.961,0.633,1.893,0.914,2.795h4.323v2.338h-7.03
		c-0.013,0.645-0.023,1.201-0.035,1.67h6.293C456.466,377.571,456.378,379.815,456.308,382.136z"/>
</g>
<g id="泗村店">
	<rect x="521.197" y="467.188" fill="none" width="67.25" height="25"/>
	<path fill="#37B48C" d="M522.884,472.522c0.892,0.645,1.815,1.383,2.776,2.215l-1.582,1.896c-0.914-0.867-1.793-1.682-2.637-2.441
		L522.884,472.522z M523.183,467.935c0.656,0.518,1.481,1.207,2.479,2.074l-1.635,1.688c-0.763-0.773-1.529-1.52-2.304-2.232
		L523.183,467.935z M523.552,477.55c0.901,0.387,1.636,0.662,2.196,0.826c-0.491,1.934-1.049,4.148-1.67,6.645
		c-0.797-0.293-1.547-0.531-2.25-0.721C522.439,482.366,523.013,480.116,523.552,477.55z M526.224,472.821h3.375v-2.074h-3.69v-2.18
		h12.728v2.18h-3.728v2.074h3.41v12.059h-2.216v-1.037h-7.663v1.037h-2.216V472.821L526.224,472.821z M531.62,474.86
		c-0.047,2.496-0.521,4.563-1.424,6.205c-0.539-0.682-1.125-1.318-1.758-1.916v2.652h7.663v-1.635c-0.34,0-0.68,0-1.021,0
		c-1.512,0-2.272-0.732-2.284-2.197v-3.109H531.62L531.62,474.86z M528.439,479.097c0.728-0.961,1.112-2.373,1.159-4.234h-1.159
		V479.097z M531.673,472.821h1.125v-2.074h-1.125V472.821z M535.681,478.147h0.423v-3.287h-1.195v2.479
		C534.907,477.878,535.166,478.147,535.681,478.147z"/>
	<path fill="#37B48C" d="M539.671,470.853h2.373v-3.109h2.284v3.109h2.181v2.305h-2.181v2.54l0.845-0.644
		c0.854,0.975,1.601,1.895,2.231,2.762l-1.828,1.389c-0.397-0.633-0.813-1.254-1.248-1.863v7.684h-2.284v-7.207
		c-0.539,1.193-1.185,2.318-1.935,3.375c-0.211-1.125-0.435-2.203-0.668-3.234c1.061-1.447,1.897-3.047,2.514-4.799h-2.284V470.853
		L539.671,470.853z M547.142,475.458l1.986-1.09c0.844,1.276,1.635,2.596,2.373,3.955l-2.146,1.178
		C548.875,478.47,548.138,477.122,547.142,475.458z M547.212,470.888h5.01v-3.164h2.496v3.164h2.162v2.428h-2.162v8.508
		c0,1.043-0.268,1.825-0.8,2.347c-0.533,0.522-1.378,0.797-2.531,0.826l-2.241,0.044c-0.141-0.81-0.305-1.635-0.491-2.479
		c0.819,0.049,1.594,0.07,2.319,0.07c0.832,0,1.248-0.428,1.248-1.283v-8.031h-5.011L547.212,470.888L547.212,470.888z"/>
	<path fill="#37B48C" d="M561.291,475.669c0,4.424-0.604,7.576-1.811,9.457c-0.634-0.598-1.313-1.166-2.039-1.705
		c1.021-1.781,1.512-4.471,1.478-8.067v-5.802h6.828c-0.176-0.428-0.354-0.844-0.535-1.248l2.864-0.668
		c0.258,0.615,0.517,1.254,0.772,1.916h5.925v2.162h-13.482V475.669L561.291,475.669z M566.038,471.978h2.427v1.46h5.994v2.108
		h-5.994v1.602h5.237v7.77h-2.373v-1.107h-6.627v1.107h-2.373v-7.77h3.709V471.978z M571.329,479.255h-6.627v2.443h6.627V479.255z"
		/>
</g>
<g id="杨村">
	<rect x="643.697" y="546.688" fill="none" width="67.25" height="25"/>
	<path fill="#37B48C" d="M643.907,557.384c0.933-1.424,1.68-3.006,2.241-4.746h-2.118v-2.284h2.181v-3.095h2.18v3.095h2.074v2.284
		h-2.074v1.942c0.927,0.58,1.734,1.122,2.427,1.626l-1.317,1.934c-0.293-0.27-0.662-0.589-1.106-0.958v7.356h-2.181v-7.271
		c-0.463,1.063-1.043,2.173-1.74,3.331C644.354,559.792,644.166,558.72,643.907,557.384z M654.577,553.552h6.312
		c-0.035,2.965-0.085,5.104-0.148,6.416c-0.063,1.313-0.163,2.168-0.294,2.566c-0.131,0.396-0.356,0.731-0.678,1.007
		c-0.318,0.271-0.696,0.453-1.134,0.545c-0.438,0.09-1.391,0.153-2.86,0.188c-0.111-0.855-0.259-1.664-0.438-2.428
		c-0.662,0.955-1.441,1.816-2.339,2.584c-0.737-0.551-1.446-1.055-2.127-1.512c2.625-2.051,4.194-4.471,4.711-7.26h-1.415
		c-0.627,2.514-1.953,4.635-3.98,6.361c-0.586-0.645-1.159-1.234-1.723-1.773c1.758-1.268,2.924-2.795,3.498-4.588h-1.601v-2.004
		l5.694-3.48h-5.379v-2.108h9.51v2.021L654.577,553.552z M658.673,555.661h-0.905c-0.403,2.332-1.191,4.362-2.363,6.091
		c0.604,0.041,1.103,0.063,1.494,0.063c0.45,0,0.803-0.079,1.055-0.237s0.416-0.442,0.492-0.854
		C658.521,560.313,658.597,558.626,658.673,555.661z"/>
	<path fill="#37B48C" d="M662.171,550.354h2.373v-3.11h2.284v3.11h2.181v2.304h-2.181v2.54l0.845-0.644
		c0.854,0.975,1.601,1.895,2.231,2.761l-1.828,1.39c-0.397-0.633-0.813-1.254-1.248-1.863v7.684h-2.284v-7.207
		c-0.539,1.193-1.185,2.318-1.935,3.375c-0.211-1.125-0.435-2.203-0.668-3.234c1.061-1.447,1.897-3.047,2.514-4.799h-2.284V550.354
		L662.171,550.354z M669.642,554.958l1.986-1.09c0.844,1.275,1.635,2.596,2.373,3.955l-2.146,1.178
		C671.375,557.97,670.638,556.622,669.642,554.958z M669.712,550.388h5.01v-3.164h2.496v3.164h2.162v2.428h-2.162v8.508
		c0,1.043-0.268,1.825-0.8,2.347c-0.533,0.522-1.378,0.797-2.531,0.826l-2.241,0.044c-0.141-0.81-0.305-1.635-0.491-2.479
		c0.819,0.049,1.594,0.07,2.319,0.07c0.832,0,1.248-0.428,1.248-1.283v-8.033h-5.011L669.712,550.388L669.712,550.388z"/>
</g>
<g id="下朱庄">
	<rect x="674.697" y="596.438" fill="none" width="67.25" height="25"/>
	<path fill="#37B48C" d="M686.052,602.44c1.897,1.357,3.804,2.771,5.713,4.234l-1.812,2.215c-1.991-1.723-3.81-3.191-5.448-4.411
		v9.757h-2.849v-13.746h-6.469v-2.479h16.979v2.479h-7.664v3.498L686.052,602.44z"/>
	<path fill="#37B48C" d="M693.259,604.392h7.153v-2.529h-3.498c-0.34,0.854-0.69,1.6-1.055,2.23
		c-0.703-0.422-1.412-0.785-2.127-1.09c0.797-1.359,1.512-3.193,2.146-5.502l2.372,0.475c-0.163,0.563-0.327,1.098-0.491,1.602
		h2.653v-2.566h2.496v2.566h5.89v2.285h-5.89v2.529h7.084v2.285h-5.906c1.57,1.816,3.691,3.217,6.363,4.201
		c-0.75,0.891-1.349,1.676-1.793,2.354c-2.298-1.255-4.214-2.919-5.748-4.991v5.994h-2.496v-6.082
		c-1.465,1.979-3.388,3.715-5.767,5.202c-0.539-0.75-1.112-1.478-1.724-2.181c2.462-1.207,4.494-2.707,6.101-4.5h-5.767
		L693.259,604.392L693.259,604.392z"/>
	<path fill="#37B48C" d="M718.589,597.536l2.83-0.668c0.299,0.721,0.611,1.506,0.939,2.354h5.826v2.25H715.09v3.48
		c0,4.16-0.826,7.234-2.479,9.229c-0.586-0.982-1.16-1.787-1.724-2.406c1.207-1.842,1.787-4.072,1.74-6.697v-5.854h6.661
		C719.034,598.567,718.8,598.005,718.589,597.536z M727.431,607.169h-4.692v4.008h5.537v2.25H714.53v-2.25h5.713v-4.008h-4.519
		v-2.25h4.519v-2.883h2.496v2.883h4.692V607.169z"/>
</g>
<g id="宜兴埠">
	<rect x="739.197" y="729.688" fill="none" width="67.25" height="25"/>
	<path fill="#37B48C" d="M754.138,735.339v9.422h2.638v2.162h-17.14v-2.162h2.603v-9.422H754.138z M746.229,730.487l3.006-0.3
		c0.176,0.479,0.375,1.071,0.598,1.774h6.539v3.183h-2.354v-1.036h-11.618v1.036h-2.354v-3.183h6.784
		C746.591,731.39,746.392,730.896,746.229,730.487z M751.642,737.413h-6.907v1.229h6.907V737.413z M744.734,741.702h6.907v-1.23
		h-6.907V741.702z M744.734,744.761h6.907v-1.229h-6.907V744.761z"/>
	<path fill="#37B48C" d="M762.662,741.21l2.021,1.635c-1.745,1.863-3.567,3.471-5.467,4.816l-1.774-1.936
		C759.281,744.556,761.021,743.05,762.662,741.21z M757.724,738.204h16.979v2.442h-16.979V738.204z M760.554,731.665
		c0.938,1.547,1.856,3.17,2.761,4.869l-2.373,1.16c-0.728-1.561-1.595-3.229-2.603-5.012L760.554,731.665z M765.968,730.399
		c0.75,1.793,1.472,3.619,2.162,5.482l-2.461,0.914c-0.621-1.91-1.318-3.797-2.093-5.66L765.968,730.399z M769.396,741.175
		c2.073,1.57,3.885,3.076,5.432,4.52l-1.969,1.881c-1.711-1.711-3.435-3.316-5.168-4.816L769.396,741.175z M771.821,730.944
		l2.514,1.143c-1.184,2.098-2.331,4.084-3.444,5.959l-2.25-1.229C769.765,734.964,770.824,733.007,771.821,730.944z"/>
	<path fill="#37B48C" d="M775.565,743.091h7.364v-1.16h-5.801v-10.65h4.604c0.176-0.457,0.315-0.855,0.422-1.195h2.707
		c-0.152,0.375-0.328,0.773-0.527,1.195h6.539v4.814H779.52v1.021h11.849v4.814h-5.94v1.16h7.383v1.969h-7.383v2.551h-2.496v-2.551
		h-7.364L775.565,743.091L775.565,743.091z M788.521,734.407v-1.23h-9v1.23H788.521z M789.013,740.104v-1.302h-9.491v1.302H789.013z
		"/>
</g>
<g id="金钟路">
	<rect x="672.572" y="782.188" fill="none" width="67.25" height="25"/>
	<path fill="#37B48C" d="M673.31,797.384h3.763c-0.457-0.607-1.037-1.336-1.74-2.18l2.039-1.23c0.609,0.703,1.242,1.482,1.898,2.339
		l-1.705,1.071h2.688v-3.443h-5.537v-2.146h5.537v-1.477h-3.356v-1.425c-0.855,0.552-1.765,1.091-2.726,1.616
		c-0.423-0.689-0.908-1.453-1.459-2.284c3.538-1.522,6.129-3.341,7.771-5.448h3.567l-0.791,0.791
		c1.815,1.896,4.207,3.328,7.172,4.289c-0.551,0.9-1.024,1.691-1.424,2.373c-0.961-0.445-1.856-0.914-2.688-1.406v1.494h-3.445
		v1.477h5.556v2.146h-2.638l2.146,1.125c-0.646,0.832-1.266,1.604-1.862,2.318h3.797v2.146H673.31V797.384z M681.607,785.079
		c-1.056,1.078-2.279,2.108-3.675,3.094h7.349C683.863,787.235,682.638,786.204,681.607,785.079z M685.702,793.938h-2.83v3.444
		h2.726l-1.688-0.932C684.554,795.608,685.152,794.771,685.702,793.938z"/>
	<path fill="#37B48C" d="M697.286,786.802h-3.208c-0.198,0.445-0.406,0.873-0.624,1.283h3.341v1.986h-1.478v1.773h1.862v1.986
		h-1.862v2.619c0.599-0.316,1.267-0.68,2.004-1.09c0.047,0.844,0.117,1.616,0.211,2.318c-2.004,1.091-3.264,1.895-3.778,2.408
		l-1.371-1.74c0.388-0.422,0.567-0.961,0.545-1.615v-2.9h-2.058v-1.986h2.058v-1.773h-0.633c-0.259,0.387-0.521,0.756-0.791,1.105
		c-0.259-1.102-0.492-2.039-0.703-2.813c1.031-1.734,1.787-3.641,2.269-5.713c1.56,0.305,2.351,0.457,2.373,0.457
		c-0.183,0.592-0.372,1.166-0.571,1.723h2.417L697.286,786.802L697.286,786.802z M703.948,800.021h-2.392v-5.782h-1.601v1.037
		h-2.354v-9.105h3.954v-3.41h2.392v3.41h3.955v9.105h-2.354v-1.037h-1.601V800.021L703.948,800.021z M699.957,792.075h1.601v-3.744
		h-1.601V792.075z M705.548,788.331h-1.601v3.744h1.601V788.331z"/>
	<path fill="#37B48C" d="M709.802,783.708h6.117v2.953c1.166-1.226,2.073-2.578,2.725-4.063l2.515,0.301
		c-0.252,0.516-0.521,1.014-0.81,1.493h5.238v1.985c-0.593,1.313-1.431,2.44-2.515,3.384c0.948,0.363,2.032,0.618,3.252,0.767
		c-0.224,0.62-0.444,1.377-0.668,2.268c-1.815-0.34-3.378-0.876-4.686-1.606c-1.33,0.709-2.896,1.237-4.702,1.591
		c-0.258-0.691-0.557-1.365-0.896-2.021c1.378-0.239,2.581-0.573,3.612-1.002c-0.539-0.504-1.009-1.063-1.406-1.679
		c-0.264,0.287-0.535,0.563-0.816,0.835c-0.146-0.24-0.428-0.653-0.844-1.239v2.083h-1.548v2.109h1.371v2.039h-1.371v2.514
		l1.97-0.246c-0.035,0.293-0.06,1.078-0.07,2.355l-7.137,0.982l-0.265-2.461l0.58-0.062v-6.108h1.758v5.915l0.983-0.114v-6.926
		h-2.391L709.802,783.708L709.802,783.708z M711.982,787.786h1.758v-1.828h-1.758V787.786z M716.939,800.073v-7.242h8.228v7.207
		h-2.216v-0.914h-3.797v0.949H716.939L716.939,800.073z M720.99,788.639c0.838-0.607,1.469-1.327,1.891-2.151h-3.823
		C719.543,787.335,720.188,788.053,720.99,788.639z M722.95,795.011h-3.797v1.936h3.797V795.011z"/>
</g>
<g id="空港_1_">
	<rect x="877.571" y="814.688" fill="none" width="67.25" height="25"/>
	<path fill="#37B48C" d="M878.046,829.479h7.26v-3.075h-4.676v-1.854c-0.511,0.271-1.024,0.53-1.548,0.782
		c-0.409-0.785-0.825-1.494-1.247-2.127c2.461-1.008,4.528-2.191,6.204-3.551l1.636,1.705c-1.364,1.02-2.804,1.949-4.313,2.795
		h11.151v2.25h-4.676v3.074h7.26v2.25h-17.051V829.479L878.046,829.479z M887.503,815.136c0.211,0.633,0.401,1.248,0.571,1.848
		h6.847v3.938h-2.461v-1.723h-11.726v1.723h-2.461v-3.938h7.049c-0.142-0.48-0.299-0.99-0.476-1.529L887.503,815.136z
		 M888.769,819.601c2.392,1.113,4.57,2.223,6.539,3.322l-1.194,2.127c-2.099-1.275-4.317-2.473-6.662-3.586L888.769,819.601z"/>
	<path fill="#37B48C" d="M897.276,819.917c0.891,0.646,1.815,1.383,2.776,2.215l-1.617,1.828c-0.362-0.363-1.241-1.178-2.637-2.443
		L897.276,819.917z M897.769,825.208c0.763,0.328,1.519,0.604,2.269,0.826c-0.444,1.732-0.948,3.885-1.512,6.451
		c-0.763-0.271-1.535-0.512-2.32-0.723C896.614,830.487,897.136,828.302,897.769,825.208z M897.769,815.329
		c0.984,0.715,1.882,1.412,2.688,2.092l-1.688,1.74c-0.771-0.785-1.61-1.564-2.514-2.338L897.769,815.329z M907.646,815.276h2.25
		v1.65h2.128v1.863h-2.128v1.563h3.007v1.863h-2.813c0.826,0.914,1.91,1.724,3.252,2.426c-0.41,0.646-0.82,1.391-1.229,2.232
		c-0.81-0.516-1.541-1.107-2.196-1.775v3.463h-6.117v0.758c0,0.563,0.271,0.844,0.81,0.844h4.729c0.444,0,0.744-0.147,0.896-0.444
		c0.151-0.295,0.239-1.12,0.264-2.474c0.845,0.422,1.611,0.738,2.304,0.949c-0.158,1.682-0.476,2.782-0.949,3.31
		c-0.475,0.523-1.248,0.786-2.319,0.786h-5.625c-1.547,0-2.319-0.773-2.319-2.32v-3.384c-0.229,0.193-0.463,0.384-0.703,0.571
		c-0.504-0.832-0.983-1.547-1.44-2.146c1.308-0.818,2.385-1.752,3.233-2.795h-2.565v-1.862h2.638v-1.563h-1.97v-1.863h1.97v-1.65
		H905v1.65h2.653v-1.65H907.646L907.646,815.276z M907.735,826.771v-1.405h-3.938v1.405H907.735z M904.354,823.573h4.278
		c-0.312-0.429-0.595-0.879-0.853-1.354h-2.61C904.929,822.688,904.656,823.14,904.354,823.573z M904.992,820.356h2.653v-1.564
		h-2.653V820.356z"/>
</g>
<g id="塘沽西">
	<rect x="974.446" y="843.161" fill="none" width="67.25" height="25"/>
	<path fill="#37B48C" d="M982.989,861.012v-5.658h2.83v-0.896h-2.654v-1.564h2.654v-0.879h-3.022
		c-0.035,3.938-0.64,6.961-1.812,9.07c-0.703-0.598-1.39-1.107-2.058-1.529c0.375-0.621,0.687-1.336,0.933-2.145
		c-1.324,0.41-2.89,0.92-4.692,1.529l-0.457-2.551c0.599-0.15,1.188-0.305,1.774-0.457v-6.047h-1.617v-2.107h1.617v-3.938h2.181
		v3.938h1.478v2.107h-1.478v5.396c0.479-0.152,0.954-0.307,1.424-0.457c-0.022,0.387-0.047,1.055-0.069,2.004
		c0.397-1.523,0.598-3.363,0.598-5.521v-6.273h4.604c-0.129-0.363-0.258-0.715-0.387-1.057l2.603-0.422
		c0.198,0.6,0.356,1.092,0.476,1.479h4.077v1.896h-4.043v0.879h3.533v2.428h0.721v1.773h-0.721v2.443h-3.533v0.896h3.498v5.659
		h-2.162v-0.825h-4.166v0.825h-2.128L982.989,861.012L982.989,861.012z M983.235,847.811h2.584v-0.879h-3.022v3.307h3.022v-0.879
		h-2.584V847.811z M989.281,857.092h-4.166v1.336h4.166V857.092z M989.476,849.357h-1.528v0.879h1.528V849.357z M989.476,852.891
		v-0.879h-1.528v0.879H989.476z"/>
	<path fill="#37B48C" d="M994.099,848.338c1.267,0.893,2.42,1.758,3.464,2.604l-1.724,1.896c-0.949-0.854-2.039-1.77-3.271-2.742
		L994.099,848.338z M995.382,853.33c0.819,0.396,1.604,0.721,2.354,0.967c-0.526,1.512-1.276,3.756-2.25,6.732l-2.479-0.879
		C993.91,857.76,994.701,855.486,995.382,853.33z M994.783,843.768c1.207,0.881,2.278,1.713,3.217,2.496l-1.723,1.828
		c-0.914-0.832-1.945-1.729-3.095-2.688L994.783,843.768z M1010.024,849.271h-4.642v2.76h3.797v8.771h-2.461v-0.948h-5.203v0.983
		h-2.461v-8.807h3.728v-2.762h-4.711v-2.268h4.711v-3.199h2.603v3.199h4.642L1010.024,849.271L1010.024,849.271z M1006.72,854.297
		h-5.203v3.287h5.203V854.297z"/>
	<path fill="#37B48C" d="M1011.535,860.924V848.83h4.588v-2.004h-5.256v-2.215h17.156v2.215h-5.503v2.004h4.835v12.076h-2.462
		v-1.145h-10.897v1.16L1011.535,860.924L1011.535,860.924z M1020.186,853.664v-2.619h-1.74c0,2.555-0.844,4.506-2.531,5.854
		c-0.68-0.568-1.317-1.054-1.916-1.45v2.101h10.898v-1.793h-2.638C1020.875,855.756,1020.186,855.059,1020.186,853.664z
		 M1013.996,855.281c1.418-1.021,2.127-2.434,2.127-4.236h-2.127V855.281z M1018.444,848.83h1.739v-2.004h-1.739V848.83z
		 M1024.896,851.045h-2.373v1.635c0,0.563,0.287,0.846,0.86,0.846h1.513V851.045z"/>
</g>
<g id="塘沽">
	<rect x="1024.571" y="882.481" fill="none" width="67.25" height="25"/>
	<path fill="#37B48C" d="M1033.114,900.332v-5.66h2.83v-0.896h-2.654v-1.564h2.654v-0.879h-3.022
		c-0.035,3.938-0.64,6.961-1.812,9.07c-0.703-0.6-1.39-1.107-2.058-1.529c0.375-0.621,0.687-1.336,0.933-2.146
		c-1.324,0.41-2.89,0.922-4.693,1.529l-0.457-2.549c0.599-0.152,1.188-0.305,1.775-0.457v-6.047h-1.617v-2.109h1.617v-3.938h2.18
		v3.938h1.479v2.109h-1.479v5.396c0.479-0.15,0.955-0.305,1.425-0.457c-0.022,0.389-0.048,1.057-0.069,2.006
		c0.396-1.523,0.598-3.363,0.598-5.521v-6.275h4.604c-0.129-0.361-0.258-0.715-0.387-1.055l2.603-0.422
		c0.198,0.598,0.356,1.09,0.475,1.477h4.078v1.898h-4.043v0.879h3.533v2.426h0.721v1.775h-0.721v2.443h-3.533v0.896h3.498v5.66
		h-2.162v-0.826h-4.166v0.826h-2.128L1033.114,900.332L1033.114,900.332z M1033.36,887.131h2.584v-0.879h-3.022v3.305h3.022v-0.879
		h-2.584V887.131z M1039.406,896.412h-4.166v1.336h4.166V896.412z M1039.601,888.678h-1.528v0.879h1.528V888.678z M1039.601,892.211
		v-0.879h-1.528v0.879H1039.601z"/>
	<path fill="#37B48C" d="M1044.224,887.658c1.267,0.891,2.421,1.758,3.464,2.602l-1.724,1.898c-0.949-0.855-2.039-1.771-3.271-2.742
		L1044.224,887.658z M1045.507,892.65c0.819,0.396,1.604,0.721,2.354,0.967c-0.527,1.512-1.277,3.756-2.25,6.73l-2.479-0.879
		C1044.035,897.08,1044.826,894.807,1045.507,892.65z M1044.908,883.088c1.207,0.879,2.279,1.711,3.218,2.496l-1.724,1.828
		c-0.914-0.832-1.944-1.729-3.095-2.689L1044.908,883.088z M1060.149,888.59h-4.642v2.76h3.797v8.771h-2.461v-0.949h-5.203v0.984
		h-2.461v-8.809h3.728v-2.76h-4.711v-2.268h4.711v-3.199h2.603v3.199h4.642L1060.149,888.59L1060.149,888.59z M1056.845,893.617
		h-5.203v3.287h5.203V893.617z"/>
</g>
<g>
	<rect x="826.905" y="763.276" fill="none" width="107" height="39"/>
	<path fill="#37B48C" d="M827.134,774.271c0.961-1.5,1.673-3.164,2.136-4.992h-1.979v-2.338h2.021v-3.146h2.303v3.146h2.039v2.338
		h-2.039v1.644c0.744,0.428,1.553,0.911,2.426,1.45l-1.143,1.986l-1.283-0.905v7.585h-2.303v-6.179
		c-0.393,0.879-0.85,1.72-1.371,2.521C827.755,776.609,827.485,775.572,827.134,774.271z M842.919,774.166
		c0.551,0.246,1.125,0.475,1.723,0.686c-0.123,2.438-0.24,3.918-0.353,4.442c-0.111,0.524-0.317,0.891-0.618,1.1
		c-0.304,0.207-0.711,0.313-1.228,0.313h-1.371c-1.125,0-1.688-0.703-1.688-2.109v-11.53h-2.496v4.922
		c0,2.584-0.208,4.456-0.624,5.615c-0.416,1.16-1.163,2.323-2.241,3.489c-0.551-0.655-1.166-1.354-1.846-2.092
		c0.967-1.031,1.598-2.069,1.895-3.116c0.295-1.045,0.443-2.843,0.443-5.392v-5.906h7.383v13.289c0,0.398,0.129,0.598,0.387,0.598
		c0.142,0,0.244-0.045,0.313-0.136c0.065-0.091,0.131-0.477,0.193-1.156C842.853,776.501,842.896,775.496,842.919,774.166z"/>
	<path fill="#37B48C" d="M855.785,770.176h6.312c0,2.438-0.07,4.945-0.211,7.523c-0.082,1.945-0.967,2.977-2.654,3.094
		c-0.633,0.047-1.383,0.082-2.25,0.105c-0.082-0.691-0.229-1.507-0.438-2.443c-0.669,0.961-1.453,1.828-2.355,2.602
		c-0.668-0.516-1.377-1.02-2.127-1.512c2.555-1.945,4.131-4.365,4.729-7.26h-1.424c-0.645,2.367-1.74,4.26-3.287,5.678
		c-0.28-0.246-0.557-0.479-0.825-0.703c-0.013,0.398-0.013,0.832,0,1.301c-2.074,0.423-3.962,0.832-5.66,1.23l-0.457-2.514
		c0.68-0.117,1.365-0.24,2.057-0.369v-6.205h-1.881v-2.408h1.881v-4.447h2.338v4.447h1.67v2.408h-1.67v5.748
		c0.281-0.06,0.558-0.117,0.826-0.176c1.301-1.031,2.228-2.361,2.777-3.99h-1.564v-2.092l5.238-3.394h-5.256v-2.108h9.387v2.021
		L855.785,770.176z M858.106,778.438c0.973,0,1.488-0.416,1.547-1.247c0.105-1.207,0.183-2.843,0.229-4.904h-0.914
		c-0.435,2.354-1.226,4.389-2.373,6.1C857.146,778.42,857.649,778.438,858.106,778.438z"/>
</g>
<script type="text/javascript" xlink:href="../js/jquery-3.2.1.min.js"></script>
<script  type="text/javascript" xlink:href="svgexe.js"></script>
</svg>
